<svg width="21" height="20" viewBox="0 0 21 20" fill="none" xmlns="http://www.w3.org/2000/svg">
<path d="M15.5 2.5C14.837 2.5 14.2011 2.76339 13.7322 3.23223C13.2634 3.70107 13 4.33696 13 5V15C13 15.663 13.2634 16.2989 13.7322 16.7678C14.2011 17.2366 14.837 17.5 15.5 17.5C16.163 17.5 16.7989 17.2366 17.2678 16.7678C17.7366 16.2989 18 15.663 18 15C18 14.337 17.7366 13.7011 17.2678 13.2322C16.7989 12.7634 16.163 12.5 15.5 12.5H5.5C4.83696 12.5 4.20107 12.7634 3.73223 13.2322C3.26339 13.7011 3 14.337 3 15C3 15.663 3.26339 16.2989 3.73223 16.7678C4.20107 17.2366 4.83696 17.5 5.5 17.5C6.16304 17.5 6.79893 17.2366 7.26777 16.7678C7.73661 16.2989 8 15.663 8 15V5C8 4.33696 7.73661 3.70107 7.26777 3.23223C6.79893 2.76339 6.16304 2.5 5.5 2.5C4.83696 2.5 4.20107 2.76339 3.73223 3.23223C3.26339 3.70107 3 4.33696 3 5C3 5.66304 3.26339 6.29893 3.73223 6.76777C4.20107 7.23661 4.83696 7.5 5.5 7.5H15.5C16.163 7.5 16.7989 7.23661 17.2678 6.76777C17.7366 6.29893 18 5.66304 18 5C18 4.33696 17.7366 3.70107 17.2678 3.23223C16.7989 2.76339 16.163 2.5 15.5 2.5Z" stroke="#7F56D9" stroke-width="1.66667" stroke-linecap="round" stroke-linejoin="round"/>
</svg>
