<svg width="113" height="34" viewBox="0 0 113 34" fill="none" xmlns="http://www.w3.org/2000/svg">
<path d="M15.5379 1.41663C7.00916 1.41663 0.0953369 8.39352 0.0953369 17C0.0953369 25.6064 7.00916 32.5833 15.5379 32.5833C23.1896 32.5833 29.5416 26.9674 30.7669 19.5972H30.656C29.5132 24.078 25.4824 27.3888 20.6854 27.3888C14.9996 27.3888 10.3903 22.7376 10.3903 17C10.3903 11.2623 14.9996 6.61107 20.6854 6.61107C25.4824 6.61107 29.5132 9.92193 30.656 14.4027H30.7669C29.5416 7.03256 23.1896 1.41663 15.5379 1.41663Z" fill="#A4BCFD"/>
<path d="M0.0953369 17C0.0953369 8.39352 7.00919 1.41663 15.5379 1.41663C23.1896 1.41663 29.5415 7.03256 30.7669 14.4027H20.361C19.2182 9.92194 15.1874 6.61107 10.3903 6.61107C4.70457 6.61107 0.0953369 11.2623 0.0953369 17Z" fill="#3538CD"/>
<path d="M0.0953369 16.9999C0.0953369 25.6064 7.00919 32.5833 15.5379 32.5833C23.1896 32.5833 29.5415 26.9673 30.7669 19.5971H20.361C19.2182 24.0779 15.1874 27.3888 10.3903 27.3888C4.70457 27.3888 0.0953369 22.7375 0.0953369 16.9999Z" fill="#3538CD"/>
<path d="M53.0483 14.5259C52.6086 11.3213 50.1658 9.46191 46.9972 9.46191C43.2632 9.46191 40.4504 12.2087 40.4504 16.8712C40.4504 21.5267 43.2283 24.2806 46.9972 24.2806C50.3961 24.2806 52.6505 22.062 53.0483 19.3082L50.438 19.2941C50.11 20.9844 48.742 21.9352 47.0321 21.9352C44.7149 21.9352 43.0538 20.1815 43.0538 16.8712C43.0538 13.6173 44.7009 11.8073 47.039 11.8073C48.7769 11.8073 50.1379 12.8003 50.438 14.5259H53.0483Z" fill="#101828"/>
<path d="M58.3928 24.3017C60.0749 24.3017 61.0799 23.5058 61.5406 22.5973H61.6243V24.0834H64.0532V16.8431C64.0532 13.9836 61.743 13.1243 59.698 13.1243C57.4436 13.1243 55.7127 14.1385 55.1544 16.1106L57.5134 16.4487C57.7647 15.7091 58.4766 15.0753 59.712 15.0753C60.8845 15.0753 61.5266 15.681 61.5266 16.7445V16.7867C61.5266 17.5192 60.7659 17.5544 58.8744 17.7587C56.7945 17.9841 54.8054 18.6109 54.8054 21.0478C54.8054 23.1748 56.3479 24.3017 58.3928 24.3017ZM59.0489 22.4282C57.995 22.4282 57.2412 21.9423 57.2412 21.0055C57.2412 20.0265 58.0857 19.618 59.2164 19.4561C59.8795 19.3645 61.2056 19.1955 61.5336 18.9278V20.2026C61.5336 21.407 60.5704 22.4282 59.0489 22.4282Z" fill="#101828"/>
<path d="M71.9469 13.2652H69.8321V10.6733H67.3056V13.2652H65.7841V15.2372H67.3056V21.252C67.2916 23.2875 68.7573 24.2876 70.6557 24.2313C71.3746 24.2101 71.8701 24.0693 72.1423 23.9777L71.7166 21.9845C71.577 22.0197 71.2908 22.0831 70.9768 22.0831C70.3416 22.0831 69.8321 21.8577 69.8321 20.8295V15.2372H71.9469V13.2652Z" fill="#101828"/>
<path d="M77.1449 24.3017C78.8269 24.3017 79.8319 23.5058 80.2926 22.5973H80.3763V24.0834H82.8052V16.8431C82.8052 13.9836 80.495 13.1243 78.45 13.1243C76.1957 13.1243 74.4647 14.1385 73.9064 16.1106L76.2654 16.4487C76.5167 15.7091 77.2286 15.0753 78.464 15.0753C79.6365 15.0753 80.2786 15.681 80.2786 16.7445V16.7867C80.2786 17.5192 79.5179 17.5544 77.6264 17.7587C75.5466 17.9841 73.5574 18.6109 73.5574 21.0478C73.5574 23.1748 75.0999 24.3017 77.1449 24.3017ZM77.8009 22.4282C76.747 22.4282 75.9932 21.9423 75.9932 21.0055C75.9932 20.0265 76.8378 19.618 77.9684 19.4561C78.6315 19.3645 79.9576 19.1955 80.2856 18.9278V20.2026C80.2856 21.407 79.3224 22.4282 77.8009 22.4282Z" fill="#101828"/>
<path d="M87.8723 9.65912H85.3457V24.0834H87.8723V9.65912Z" fill="#101828"/>
<path d="M95.1466 24.2947C98.2873 24.2947 100.283 22.062 100.283 18.7165C100.283 15.364 98.2873 13.1243 95.1466 13.1243C92.0058 13.1243 90.0097 15.364 90.0097 18.7165C90.0097 22.062 92.0058 24.2947 95.1466 24.2947ZM95.1605 22.2522C93.4227 22.2522 92.5712 20.6886 92.5712 18.7095C92.5712 16.7304 93.4227 15.1457 95.1605 15.1457C96.8705 15.1457 97.722 16.7304 97.722 18.7095C97.722 20.6886 96.8705 22.2522 95.1605 22.2522Z" fill="#101828"/>
<path d="M107.09 28.3656C109.987 28.3656 112.122 27.0274 112.122 24.2594V13.2652H109.631V15.0541H109.491C109.107 14.2723 108.305 13.1243 106.413 13.1243C103.935 13.1243 101.988 15.0823 101.988 18.6391C101.988 22.1676 103.935 23.9284 106.406 23.9284C108.242 23.9284 109.1 22.9353 109.491 22.1395H109.617V24.189C109.617 25.7807 108.57 26.4358 107.132 26.4358C105.611 26.4358 104.94 25.7103 104.633 25.0764L102.358 25.6328C102.819 27.1471 104.361 28.3656 107.09 28.3656ZM107.111 21.9282C105.443 21.9282 104.564 20.6182 104.564 18.625C104.564 16.66 105.429 15.2161 107.111 15.2161C108.737 15.2161 109.631 16.5754 109.631 18.625C109.631 20.6886 108.723 21.9282 107.111 21.9282Z" fill="#101828"/>
</svg>
