<svg width="132" height="34" viewBox="0 0 132 34" fill="none" xmlns="http://www.w3.org/2000/svg">
<path fill-rule="evenodd" clip-rule="evenodd" d="M15.5618 25.8305C20.3947 25.8305 24.3125 21.8769 24.3125 17C24.3125 12.123 20.3947 8.1694 15.5618 8.1694C10.7289 8.1694 6.81102 12.123 6.81102 17C6.81102 21.8769 10.7289 25.8305 15.5618 25.8305ZM15.5618 32.5833C24.0905 32.5833 31.0043 25.6064 31.0043 17C31.0043 8.39352 24.0905 1.41663 15.5618 1.41663C7.03311 1.41663 0.119263 8.39352 0.119263 17C0.119263 25.6064 7.03311 32.5833 15.5618 32.5833Z" fill="#6938EF"/>
<path d="M15.7384 17.3411C17.3466 15.7183 19.954 15.7183 21.5621 17.3411L29.5698 25.4218C31.178 27.0446 31.178 29.6758 29.5698 31.2986C27.9616 32.9215 25.3542 32.9215 23.746 31.2986L15.7384 23.218C14.1302 21.5951 14.1302 18.964 15.7384 17.3411Z" fill="#F670C7"/>
<path d="M17.9869 25.487L23.0727 30.6191C25.512 29.2463 27.5443 27.2254 28.9409 24.7872L23.8969 19.6971C23.0109 22.4876 20.787 24.6737 17.9869 25.487Z" fill="#6519BA"/>
<path d="M55.9369 25.5708C55.4914 26.1262 54.9477 26.5493 54.3056 26.8402C53.6767 27.131 52.9823 27.2765 52.2223 27.2765C51.2003 27.2765 50.2765 27.0517 49.4511 26.6022C48.6256 26.1658 47.6822 25.3857 46.6209 24.2618C45.3761 24.1032 44.2624 23.6999 43.2797 23.052C42.3101 22.4041 41.5501 21.5711 40.9998 20.553C40.4626 19.5217 40.194 18.3845 40.194 17.1417C40.194 15.7798 40.515 14.5567 41.157 13.4725C41.8122 12.375 42.7097 11.5156 43.8496 10.8942C45.0027 10.2727 46.2933 9.96199 47.7215 9.96199C49.1497 9.96199 50.4338 10.2727 51.5737 10.8942C52.7136 11.5156 53.6112 12.375 54.2663 13.4725C54.9215 14.5567 55.249 15.7798 55.249 17.1417C55.249 18.7548 54.797 20.1695 53.8929 21.386C53.0019 22.6024 51.8161 23.4487 50.3355 23.9247C50.6631 24.2684 50.9775 24.513 51.2789 24.6585C51.5934 24.8172 51.9275 24.8965 52.2813 24.8965C53.1329 24.8965 53.8798 24.5527 54.5218 23.8652L55.9369 25.5708ZM43.4172 17.1417C43.4172 18.0011 43.6007 18.768 43.9676 19.4423C44.3475 20.1167 44.8651 20.6455 45.5202 21.029C46.1754 21.3992 46.9091 21.5843 47.7215 21.5843C48.5339 21.5843 49.2676 21.3992 49.9228 21.029C50.5779 20.6455 51.0889 20.1167 51.4558 19.4423C51.8358 18.768 52.0258 18.0011 52.0258 17.1417C52.0258 16.2822 51.8358 15.5153 51.4558 14.841C51.0889 14.1667 50.5779 13.6444 49.9228 13.2742C49.2676 12.8907 48.5339 12.699 47.7215 12.699C46.9091 12.699 46.1754 12.8907 45.5202 13.2742C44.8651 13.6444 44.3475 14.1667 43.9676 14.841C43.6007 15.5153 43.4172 16.2822 43.4172 17.1417Z" fill="#101828"/>
<path d="M68.0783 13.413V24.0833H65.1694V22.814C64.7633 23.2768 64.2785 23.6338 63.715 23.885C63.1516 24.123 62.5423 24.242 61.8872 24.242C60.4983 24.242 59.3977 23.8387 58.5853 23.0322C57.7729 22.2256 57.3668 21.029 57.3668 19.4423V13.413H60.4328V18.9862C60.4328 20.705 61.1469 21.5645 62.5751 21.5645C63.3089 21.5645 63.8985 21.3265 64.344 20.8505C64.7895 20.3613 65.0122 19.6407 65.0122 18.6887V13.413H68.0783Z" fill="#101828"/>
<path d="M75.9502 24.242C74.8365 24.242 73.8341 24.0106 72.9431 23.5478C72.0652 23.0718 71.3773 22.4173 70.8794 21.5843C70.3815 20.7513 70.1326 19.8059 70.1326 18.7482C70.1326 17.6904 70.3815 16.745 70.8794 15.912C71.3773 15.079 72.0652 14.4311 72.9431 13.9683C73.8341 13.4923 74.8365 13.2543 75.9502 13.2543C77.0639 13.2543 78.0597 13.4923 78.9376 13.9683C79.8155 14.4311 80.5034 15.079 81.0013 15.912C81.4992 16.745 81.7481 17.6904 81.7481 18.7482C81.7481 19.8059 81.4992 20.7513 81.0013 21.5843C80.5034 22.4173 79.8155 23.0718 78.9376 23.5478C78.0597 24.0106 77.0639 24.242 75.9502 24.242ZM75.9502 21.7033C76.7364 21.7033 77.3784 21.4389 77.8763 20.91C78.3873 20.3679 78.6428 19.6473 78.6428 18.7482C78.6428 17.849 78.3873 17.135 77.8763 16.6062C77.3784 16.064 76.7364 15.793 75.9502 15.793C75.164 15.793 74.5154 16.064 74.0044 16.6062C73.4934 17.135 73.2379 17.849 73.2379 18.7482C73.2379 19.6473 73.4934 20.3679 74.0044 20.91C74.5154 21.4389 75.164 21.7033 75.9502 21.7033Z" fill="#101828"/>
<path d="M90.6175 23.5677C90.3162 23.7924 89.9427 23.9643 89.4972 24.0833C89.0649 24.1891 88.6063 24.242 88.1215 24.242C86.8636 24.242 85.8874 23.918 85.193 23.2702C84.5116 22.6223 84.171 21.6703 84.171 20.4142V16.031H82.5397V13.651H84.171V11.0528H87.237V13.651H89.8707V16.031H87.237V20.3745C87.237 20.824 87.3484 21.1744 87.5711 21.4257C87.807 21.6637 88.1346 21.7827 88.5538 21.7827C89.0386 21.7827 89.4514 21.6504 89.7921 21.386L90.6175 23.5677Z" fill="#101828"/>
<path d="M92.3386 13.413H95.4047V24.0833H92.3386V13.413ZM93.8717 11.9255C93.3082 11.9255 92.8497 11.7602 92.4959 11.4297C92.1421 11.0991 91.9652 10.6892 91.9652 10.2C91.9652 9.71077 92.1421 9.30088 92.4959 8.97032C92.8497 8.63977 93.3082 8.47449 93.8717 8.47449C94.4351 8.47449 94.8937 8.63315 95.2475 8.95049C95.6012 9.26782 95.7781 9.66449 95.7781 10.1405C95.7781 10.6562 95.6012 11.0859 95.2475 11.4297C94.8937 11.7602 94.4351 11.9255 93.8717 11.9255Z" fill="#101828"/>
<path d="M108.608 18.7878C108.608 18.8275 108.588 19.1052 108.549 19.6208H100.55C100.694 20.2819 101.035 20.8042 101.572 21.1877C102.109 21.5711 102.777 21.7628 103.577 21.7628C104.127 21.7628 104.612 21.6835 105.031 21.5248C105.463 21.3529 105.863 21.0885 106.23 20.7315L107.861 22.5165C106.865 23.6668 105.411 24.242 103.498 24.242C102.306 24.242 101.251 24.0106 100.334 23.5478C99.4164 23.0718 98.7088 22.4173 98.2109 21.5843C97.713 20.7513 97.4641 19.8059 97.4641 18.7482C97.4641 17.7036 97.7065 16.7648 98.1913 15.9318C98.6892 15.0856 99.364 14.4311 100.216 13.9683C101.08 13.4923 102.043 13.2543 103.105 13.2543C104.14 13.2543 105.077 13.4791 105.915 13.9287C106.754 14.3782 107.409 15.0261 107.881 15.8723C108.366 16.7053 108.608 17.6772 108.608 18.7878ZM103.124 15.5947C102.43 15.5947 101.847 15.793 101.375 16.1897C100.904 16.5863 100.615 17.1284 100.51 17.816H105.719C105.614 17.1417 105.326 16.6062 104.854 16.2095C104.382 15.7996 103.806 15.5947 103.124 15.5947Z" fill="#101828"/>
<path d="M117.076 13.2543C118.386 13.2543 119.441 13.651 120.24 14.4443C121.053 15.2377 121.459 16.4144 121.459 17.9747V24.0833H118.393V18.4507C118.393 17.6044 118.21 16.9764 117.843 16.5665C117.476 16.1434 116.945 15.9318 116.251 15.9318C115.478 15.9318 114.862 16.1764 114.403 16.6657C113.945 17.1417 113.715 17.8557 113.715 18.8077V24.0833H110.649V13.413H113.578V14.6625C113.984 14.2129 114.488 13.8692 115.091 13.6312C115.694 13.3799 116.355 13.2543 117.076 13.2543Z" fill="#101828"/>
<path d="M131.058 23.5677C130.757 23.7924 130.383 23.9643 129.938 24.0833C129.506 24.1891 129.047 24.242 128.562 24.242C127.304 24.242 126.328 23.918 125.634 23.2702C124.952 22.6223 124.612 21.6703 124.612 20.4142V16.031H122.98V13.651H124.612V11.0528H127.678V13.651H130.311V16.031H127.678V20.3745C127.678 20.824 127.789 21.1744 128.012 21.4257C128.248 21.6637 128.575 21.7827 128.994 21.7827C129.479 21.7827 129.892 21.6504 130.233 21.386L131.058 23.5677Z" fill="#101828"/>
</svg>
