<svg width="120" height="34" viewBox="0 0 120 34" fill="none" xmlns="http://www.w3.org/2000/svg">
<rect x="0.936646" y="13.6" width="6.73855" height="6.79999" fill="#039855"/>
<rect x="21.1522" y="20.4" width="6.73855" height="6.79999" transform="rotate(180 21.1522 20.4)" fill="#027A48"/>
<path d="M7.67517 13.6L14.4137 6.80005V13.6L7.67517 20.4V13.6Z" fill="#A6F4C5"/>
<path d="M14.4137 20.4L7.67515 27.2L7.67515 20.4L14.4137 13.6L14.4137 20.4Z" fill="#6CE9A6"/>
<path d="M0.936646 13.6L14.4137 0V6.79999L7.67519 13.6H0.936646Z" fill="#32D583"/>
<path d="M21.1522 20.4L7.67512 34L7.67512 27.2L14.4137 20.4L21.1522 20.4Z" fill="#12B76A"/>
<path d="M35.8283 24.2816C34.767 24.2816 33.7385 24.1296 32.7426 23.8255C31.7599 23.5214 30.9803 23.1181 30.4038 22.6156L31.2882 20.6125C31.8517 21.062 32.5396 21.4323 33.3519 21.7231C34.1774 22.0008 35.0029 22.1396 35.8283 22.1396C36.8504 22.1396 37.6103 21.9744 38.1082 21.6438C38.6192 21.3133 38.8747 20.8769 38.8747 20.3348C38.8747 19.9381 38.7306 19.6142 38.4423 19.363C38.1672 19.0985 37.8134 18.8936 37.381 18.7481C36.9486 18.6027 36.359 18.4374 35.6121 18.2523C34.5639 18.0011 33.7123 17.7499 33.0571 17.4986C32.4151 17.2474 31.8582 16.8574 31.3865 16.3285C30.9279 15.7864 30.6986 15.0591 30.6986 14.1468C30.6986 13.3799 30.9017 12.6858 31.3079 12.0643C31.7272 11.4296 32.3496 10.9272 33.175 10.557C34.0136 10.1868 35.0356 10.0016 36.2411 10.0016C37.0797 10.0016 37.9051 10.1074 38.7175 10.319C39.5299 10.5305 40.2309 10.8346 40.8205 11.2313L40.0147 13.2345C39.4119 12.8775 38.783 12.6064 38.1279 12.4213C37.4727 12.2362 36.8373 12.1436 36.2214 12.1436C35.2125 12.1436 34.4591 12.3155 33.9612 12.6593C33.4764 13.0031 33.234 13.4593 33.234 14.0278C33.234 14.4245 33.3716 14.7484 33.6467 14.9996C33.935 15.2509 34.2953 15.4492 34.7277 15.5946C35.1601 15.7401 35.7497 15.9054 36.4966 16.0905C37.5186 16.3285 38.3572 16.5797 39.0123 16.8441C39.6674 17.0954 40.2243 17.4854 40.6829 18.0143C41.1546 18.5432 41.3905 19.2572 41.3905 20.1563C41.3905 20.9232 41.1808 21.6174 40.7615 22.2388C40.3553 22.8603 39.733 23.3561 38.8944 23.7263C38.0558 24.0965 37.0338 24.2816 35.8283 24.2816Z" fill="#101828"/>
<path d="M43.6881 13.4923H46.1449V24.0833H43.6881V13.4923ZM44.9264 11.747C44.4809 11.747 44.1074 11.6081 43.8061 11.3305C43.5047 11.0396 43.354 10.6826 43.354 10.2595C43.354 9.83636 43.5047 9.48597 43.8061 9.20831C44.1074 8.91742 44.4809 8.77197 44.9264 8.77197C45.3719 8.77197 45.7453 8.91081 46.0466 9.18847C46.348 9.45292 46.4987 9.79008 46.4987 10.2C46.4987 10.6363 46.348 11.0065 46.0466 11.3106C45.7584 11.6015 45.385 11.747 44.9264 11.747Z" fill="#101828"/>
<path d="M52.6123 24.2221C51.7607 24.2221 50.9286 24.1098 50.1163 23.885C49.3039 23.6602 48.6553 23.3759 48.1705 23.0321L49.1139 21.148C49.5856 21.4653 50.149 21.7231 50.8042 21.9215C51.4724 22.1066 52.1275 22.1991 52.7696 22.1991C54.2371 22.1991 54.9708 21.8091 54.9708 21.029C54.9708 20.6588 54.7809 20.4009 54.4009 20.2555C54.034 20.11 53.4378 19.9712 52.6123 19.839C51.7476 19.7068 51.04 19.5547 50.4897 19.3828C49.9525 19.2109 49.4808 18.9134 49.0746 18.4903C48.6815 18.054 48.485 17.4524 48.485 16.6855C48.485 15.6806 48.8977 14.8806 49.7232 14.2856C50.5618 13.6774 51.6886 13.3733 53.1037 13.3733C53.8244 13.3733 54.545 13.4593 55.2657 13.6311C55.9863 13.7898 56.5759 14.008 57.0345 14.2856L56.0911 16.1698C55.2001 15.6409 54.1978 15.3765 53.084 15.3765C52.3634 15.3765 51.8131 15.4889 51.4331 15.7136C51.0662 15.9252 50.8828 16.2095 50.8828 16.5665C50.8828 16.9631 51.0793 17.2474 51.4724 17.4193C51.8786 17.578 52.501 17.73 53.3395 17.8755C54.1781 18.0077 54.866 18.1598 55.4032 18.3316C55.9404 18.5035 56.399 18.7944 56.779 19.2043C57.1721 19.6142 57.3686 20.196 57.3686 20.9496C57.3686 21.9413 56.9428 22.7346 56.0911 23.3296C55.2394 23.9246 54.0799 24.2221 52.6123 24.2221Z" fill="#101828"/>
<path d="M69.1195 13.4923L64.206 24.9361C63.7474 26.0865 63.1905 26.893 62.5354 27.3558C61.8802 27.8318 61.0875 28.0698 60.1572 28.0698C59.6331 28.0698 59.1156 27.9839 58.6045 27.812C58.0935 27.6401 57.6743 27.4021 57.3467 27.098L58.3294 25.2733C58.5652 25.4981 58.8404 25.6766 59.1549 25.8088C59.4824 25.941 59.81 26.0071 60.1376 26.0071C60.57 26.0071 60.9237 25.8948 61.1989 25.67C61.4872 25.4452 61.7492 25.0684 61.9851 24.5395L62.1619 24.123L57.5825 13.4923H60.1376L63.4395 21.3265L66.761 13.4923H69.1195Z" fill="#101828"/>
<path d="M76.4726 13.3733C77.4946 13.3733 78.4052 13.5981 79.2045 14.0476C80.0169 14.4972 80.6524 15.1319 81.111 15.9516C81.5696 16.7714 81.7989 17.7168 81.7989 18.7878C81.7989 19.8588 81.5696 20.8108 81.111 21.6438C80.6524 22.4636 80.0169 23.0983 79.2045 23.5478C78.4052 23.9974 77.4946 24.2221 76.4726 24.2221C75.0575 24.2221 73.9372 23.7461 73.1117 22.7941V27.931H70.655V13.4923H72.9938V14.8806C73.4 14.3782 73.8979 14.0014 74.4875 13.7501C75.0903 13.4989 75.7519 13.3733 76.4726 13.3733ZM76.1974 22.1C77.1015 22.1 77.8418 21.7959 78.4184 21.1876C79.008 20.5794 79.3028 19.7795 79.3028 18.7878C79.3028 17.7961 79.008 16.9962 78.4184 16.388C77.8418 15.7798 77.1015 15.4756 76.1974 15.4756C75.6078 15.4756 75.0772 15.6145 74.6055 15.8921C74.1338 16.1566 73.7603 16.54 73.4852 17.0425C73.21 17.5449 73.0724 18.1267 73.0724 18.7878C73.0724 19.4489 73.21 20.0307 73.4852 20.5331C73.7603 21.0356 74.1338 21.4256 74.6055 21.7033C75.0772 21.9678 75.6078 22.1 76.1974 22.1Z" fill="#101828"/>
<path d="M90.084 13.3733C91.4074 13.3733 92.4687 13.7634 93.268 14.5435C94.0672 15.3236 94.4669 16.4805 94.4669 18.0143V24.0833H92.0101V18.3316C92.0101 17.4061 91.7939 16.7119 91.3615 16.2491C90.9291 15.7731 90.3133 15.5351 89.514 15.5351C88.6099 15.5351 87.8958 15.8128 87.3717 16.3681C86.8476 16.9103 86.5856 17.697 86.5856 18.7283V24.0833H84.1288V9.36697H86.5856V14.722C86.9917 14.2856 87.4897 13.9551 88.0793 13.7303C88.682 13.4923 89.3502 13.3733 90.084 13.3733Z" fill="#101828"/>
<path d="M107.745 13.4923V24.0833H105.406V22.7346C105.013 23.2106 104.521 23.5809 103.932 23.8453C103.342 24.0965 102.707 24.2221 102.025 24.2221C100.623 24.2221 99.5161 23.8321 98.7037 23.052C97.9044 22.2586 97.5048 21.0885 97.5048 19.5415V13.4923H99.9616V19.2043C99.9616 20.1563 100.171 20.8703 100.59 21.3463C101.023 21.8091 101.632 22.0405 102.418 22.0405C103.296 22.0405 103.991 21.7694 104.502 21.2273C105.026 20.672 105.288 19.8786 105.288 18.8473V13.4923H107.745Z" fill="#101828"/>
<path d="M114.204 24.2221C113.353 24.2221 112.521 24.1098 111.708 23.885C110.896 23.6602 110.247 23.3759 109.762 23.0321L110.706 21.148C111.177 21.4653 111.741 21.7231 112.396 21.9215C113.064 22.1066 113.719 22.1991 114.361 22.1991C115.829 22.1991 116.563 21.8091 116.563 21.029C116.563 20.6588 116.373 20.4009 115.993 20.2555C115.626 20.11 115.03 19.9712 114.204 19.839C113.339 19.7068 112.632 19.5547 112.082 19.3828C111.544 19.2109 111.073 18.9134 110.666 18.4903C110.273 18.054 110.077 17.4524 110.077 16.6855C110.077 15.6806 110.49 14.8806 111.315 14.2856C112.154 13.6774 113.28 13.3733 114.696 13.3733C115.416 13.3733 116.137 13.4593 116.858 13.6311C117.578 13.7898 118.168 14.008 118.626 14.2856L117.683 16.1698C116.792 15.6409 115.79 15.3765 114.676 15.3765C113.955 15.3765 113.405 15.4889 113.025 15.7136C112.658 15.9252 112.475 16.2095 112.475 16.5665C112.475 16.9631 112.671 17.2474 113.064 17.4193C113.47 17.578 114.093 17.73 114.931 17.8755C115.77 18.0077 116.458 18.1598 116.995 18.3316C117.532 18.5035 117.991 18.7944 118.371 19.2043C118.764 19.6142 118.96 20.196 118.96 20.9496C118.96 21.9413 118.535 22.7346 117.683 23.3296C116.831 23.9246 115.672 24.2221 114.204 24.2221Z" fill="#101828"/>
</svg>
