<svg width="129" height="34" viewBox="0 0 129 34" fill="none" xmlns="http://www.w3.org/2000/svg">
<path d="M11.5535 23.6786C17.6454 23.6786 22.5839 18.6951 22.5839 12.5476C22.5839 11.8509 22.5204 11.1691 22.3991 10.5079C21.7438 10.3854 21.0682 10.3214 20.3778 10.3214C14.2859 10.3214 9.34741 15.3049 9.34741 21.4524C9.34741 22.1491 9.41084 22.8308 9.5322 23.4921C10.1875 23.6145 10.8631 23.6786 11.5535 23.6786Z" fill="#175CD3"/>
<path fill-rule="evenodd" clip-rule="evenodd" d="M9.53228 23.4921C4.40571 22.534 0.523193 17.9983 0.523193 12.5476C0.523193 6.40012 5.46166 1.41663 11.5536 1.41663C16.9551 1.41663 21.4497 5.33454 22.3992 10.5079C21.7439 10.3854 21.0683 10.3214 20.3779 10.3214C14.286 10.3214 9.34749 15.3049 9.34749 21.4523C9.34749 22.149 9.41093 22.8308 9.53228 23.4921Z" fill="#1570EF"/>
<path fill-rule="evenodd" clip-rule="evenodd" d="M11.5535 23.6785C17.6454 23.6785 22.5839 18.695 22.5839 12.5475C22.5839 11.8508 22.5205 11.1691 22.3991 10.5078C27.5257 11.4659 31.4082 16.0015 31.4082 21.4523C31.4082 27.5998 26.4697 32.5832 20.3778 32.5832C14.9763 32.5832 10.4816 28.6653 9.53223 23.492C10.1875 23.6145 10.8631 23.6785 11.5535 23.6785Z" fill="#2E90FA"/>
<path d="M52.6262 20.4736C52.2331 21.7562 51.5452 22.7148 50.5625 23.3495C49.5798 23.9709 48.4333 24.2816 47.1231 24.2816C45.839 24.2816 44.7253 24.0106 43.7819 23.4685C42.8516 22.9263 42.1309 22.1528 41.6199 21.148C41.122 20.1431 40.873 18.9398 40.873 17.5383C40.873 16.1367 41.1286 14.9335 41.6396 13.9286C42.1506 12.9237 42.8712 12.1502 43.8015 11.6081C44.7318 11.066 45.8259 10.795 47.0837 10.795C48.4071 10.795 49.5405 11.0792 50.4839 11.6478C51.4404 12.2031 52.0955 13.0493 52.4493 14.1865L49.9926 15.2376C49.7698 14.4443 49.4291 13.8823 48.9705 13.5518C48.5119 13.208 47.9223 13.0361 47.2017 13.0361C46.1272 13.0361 45.269 13.4262 44.627 14.2063C43.9981 14.9732 43.6836 16.0838 43.6836 17.5383C43.6836 18.9795 43.9849 20.0902 44.5877 20.8703C45.1904 21.6504 46.0617 22.0405 47.2017 22.0405C47.9092 22.0405 48.5185 21.8487 49.0295 21.4653C49.5536 21.0818 49.9205 20.5001 50.1301 19.72L52.6262 20.4736Z" fill="#101828"/>
<path d="M56.0188 12.7386C54.9051 12.7386 54.3482 12.256 54.3482 11.2908C54.3482 10.3123 54.9051 9.82312 56.0188 9.82312C57.1326 9.82312 57.6894 10.3123 57.6894 11.2908C57.6894 12.256 57.1326 12.7386 56.0188 12.7386ZM57.3553 14.1666V24.0833H54.6627V14.1666H57.3553Z" fill="#101828"/>
<path d="M60.2096 24.0833V14.1666H62.5485L62.7254 16.1103C62.9743 15.436 63.3477 14.9137 63.8456 14.5435C64.3566 14.16 64.9987 13.9683 65.7717 13.9683C66.2303 13.9683 66.5841 14.041 66.8331 14.1865L66.5186 16.4673C66.3876 16.4276 66.2238 16.3946 66.0272 16.3681C65.8438 16.3285 65.6014 16.3086 65.3 16.3086C64.8939 16.3086 64.5073 16.4078 64.1404 16.6061C63.7867 16.7912 63.4919 17.0821 63.256 17.4788C63.0202 17.8622 62.9022 18.3515 62.9022 18.9465V24.0833H60.2096Z" fill="#101828"/>
<path d="M72.7708 13.9683C74.081 13.9683 75.0965 14.2526 75.8171 14.8211C76.5509 15.3897 77.0357 16.0772 77.2715 16.8838L74.7558 17.7961C74.4938 16.5929 73.8452 15.9913 72.8101 15.9913C72.0632 15.9913 71.4801 16.2557 71.0608 16.7846C70.6547 17.3135 70.4516 18.1002 70.4516 19.1448C70.4516 20.2026 70.6612 20.9893 71.0805 21.505C71.5129 22.0074 72.096 22.2586 72.8297 22.2586C73.9697 22.2586 74.651 21.6702 74.8737 20.4935L77.3109 21.2868C77.0881 22.1727 76.5902 22.8933 75.8171 23.4486C75.0572 24.004 74.0679 24.2816 72.8494 24.2816C71.8274 24.2816 70.9298 24.0767 70.1568 23.6668C69.3968 23.2569 68.8072 22.6685 68.3879 21.9016C67.9686 21.1347 67.759 20.2092 67.759 19.125C67.759 18.0407 67.9686 17.1152 68.3879 16.3483C68.8203 15.5814 69.4099 14.993 70.1568 14.5831C70.9167 14.1732 71.788 13.9683 72.7708 13.9683Z" fill="#101828"/>
<path d="M83.8842 13.9683C84.8669 13.9683 85.7383 14.1732 86.4982 14.5831C87.2582 14.993 87.8478 15.5814 88.2671 16.3483C88.6995 17.1152 88.9157 18.0407 88.9157 19.125C88.9157 20.2092 88.6995 21.1347 88.2671 21.9016C87.8478 22.6685 87.2582 23.2569 86.4982 23.6668C85.7383 24.0767 84.8669 24.2816 83.8842 24.2816C82.8884 24.2816 82.0105 24.0767 81.2506 23.6668C80.5037 23.2569 79.9141 22.6685 79.4817 21.9016C79.0624 21.1347 78.8528 20.2092 78.8528 19.125C78.8528 18.0407 79.0624 17.1152 79.4817 16.3483C79.9141 15.5814 80.5037 14.993 81.2506 14.5831C82.0105 14.1732 82.8884 13.9683 83.8842 13.9683ZM83.8842 15.9913C83.1505 15.9913 82.574 16.2557 82.1547 16.7846C81.7485 17.3003 81.5454 18.0804 81.5454 19.125C81.5454 20.1695 81.7485 20.9562 82.1547 21.4851C82.574 22.0008 83.1505 22.2586 83.8842 22.2586C84.6049 22.2586 85.1683 22.0008 85.5745 21.4851C85.9938 20.9562 86.2034 20.1695 86.2034 19.125C86.2034 18.0804 85.9938 17.3003 85.5745 16.7846C85.1683 16.2557 84.6049 15.9913 83.8842 15.9913Z" fill="#101828"/>
<path d="M95.6498 13.9683C96.6325 13.9683 97.5039 14.1732 98.2638 14.5831C99.0238 14.993 99.6134 15.5814 100.033 16.3483C100.465 17.1152 100.681 18.0407 100.681 19.125C100.681 20.2092 100.465 21.1347 100.033 21.9016C99.6134 22.6685 99.0238 23.2569 98.2638 23.6668C97.5039 24.0767 96.6325 24.2816 95.6498 24.2816C94.654 24.2816 93.7761 24.0767 93.0162 23.6668C92.2693 23.2569 91.6797 22.6685 91.2473 21.9016C90.828 21.1347 90.6184 20.2092 90.6184 19.125C90.6184 18.0407 90.828 17.1152 91.2473 16.3483C91.6797 15.5814 92.2693 14.993 93.0162 14.5831C93.7761 14.1732 94.654 13.9683 95.6498 13.9683ZM95.6498 15.9913C94.9161 15.9913 94.3396 16.2557 93.9203 16.7846C93.5141 17.3003 93.311 18.0804 93.311 19.125C93.311 20.1695 93.5141 20.9562 93.9203 21.4851C94.3396 22.0008 94.9161 22.2586 95.6498 22.2586C96.3705 22.2586 96.9339 22.0008 97.3401 21.4851C97.7594 20.9562 97.969 20.1695 97.969 19.125C97.969 18.0804 97.7594 17.3003 97.3401 16.7846C96.9339 16.2557 96.3705 15.9913 95.6498 15.9913Z" fill="#101828"/>
<path d="M105.588 9.82312V21.029C105.588 21.4917 105.666 21.8157 105.823 22.0008C105.981 22.1859 106.243 22.2785 106.61 22.2785C106.832 22.2785 107.016 22.2652 107.16 22.2388C107.304 22.2123 107.487 22.1595 107.71 22.0801L107.474 23.8651C107.252 23.9973 106.97 24.0965 106.629 24.1626C106.302 24.242 105.974 24.2816 105.647 24.2816C104.69 24.2816 103.989 24.0502 103.544 23.5875C103.111 23.1115 102.895 22.3578 102.895 21.3265V9.82312H105.588Z" fill="#101828"/>
<path d="M113.77 24.2816C112.224 24.2816 110.986 23.8321 110.056 22.933C109.125 22.0206 108.66 20.7513 108.66 19.125C108.66 18.0407 108.87 17.1152 109.289 16.3483C109.708 15.5814 110.292 14.993 111.038 14.5831C111.798 14.1732 112.663 13.9683 113.633 13.9683C114.629 13.9683 115.474 14.1732 116.168 14.5831C116.863 14.9798 117.393 15.5285 117.76 16.2293C118.127 16.9168 118.31 17.7036 118.31 18.5895C118.31 18.8539 118.304 19.1051 118.291 19.3431C118.278 19.5811 118.258 19.7927 118.232 19.9778H111.294C111.399 20.7447 111.661 21.3198 112.08 21.7033C112.512 22.0735 113.069 22.2586 113.751 22.2586C114.327 22.2586 114.792 22.1462 115.146 21.9215C115.5 21.6967 115.775 21.386 115.972 20.9893L118.114 21.8223C117.799 22.6024 117.249 23.2106 116.463 23.647C115.677 24.0701 114.779 24.2816 113.77 24.2816ZM113.613 15.9715C112.342 15.9715 111.576 16.6788 111.314 18.0936H115.736C115.657 17.4061 115.434 16.8838 115.067 16.5268C114.714 16.1566 114.229 15.9715 113.613 15.9715Z" fill="#101828"/>
<path d="M124.523 24.2816C123.527 24.2816 122.617 24.1031 121.791 23.7461C120.979 23.3891 120.317 22.8867 119.806 22.2388L121.359 20.6521C121.673 21.1281 122.093 21.5182 122.617 21.8223C123.141 22.1264 123.763 22.2785 124.484 22.2785C124.995 22.2785 125.401 22.2057 125.702 22.0603C126.017 21.9016 126.174 21.657 126.174 21.3265C126.174 21.1149 126.102 20.9364 125.958 20.791C125.814 20.6323 125.525 20.5067 125.093 20.4141L123.364 20.0571C122.224 19.8191 121.411 19.4621 120.926 18.9861C120.455 18.4969 120.219 17.8688 120.219 17.102C120.219 16.5598 120.376 16.0508 120.691 15.5748C121.018 15.0988 121.503 14.7153 122.145 14.4245C122.787 14.1203 123.586 13.9683 124.543 13.9683C126.534 13.9683 127.963 14.5831 128.827 15.8128L127.216 17.3995C126.927 16.9367 126.547 16.5863 126.076 16.3483C125.617 16.0971 125.132 15.9715 124.621 15.9715C123.468 15.9715 122.892 16.2954 122.892 16.9433C122.892 17.1548 122.984 17.34 123.167 17.4986C123.35 17.6441 123.685 17.7697 124.169 17.8755L126.174 18.292C127.144 18.4903 127.838 18.8275 128.257 19.3035C128.677 19.7662 128.886 20.3282 128.886 20.9893C128.886 21.9413 128.506 22.728 127.746 23.3495C127 23.9709 125.925 24.2816 124.523 24.2816Z" fill="#101828"/>
</svg>
