<svg width="103" height="34" viewBox="0 0 103 34" fill="none" xmlns="http://www.w3.org/2000/svg">
<path d="M9.82883 15.8086C10.406 13.6353 12.6198 11.4013 14.7736 10.8188L28.2008 7.18764C30.3545 6.6052 31.6326 7.8949 31.0554 10.0683L27.457 23.618C26.8799 25.7913 24.666 28.0253 22.5123 28.6078L9.08506 32.2389C6.93134 32.8214 5.6533 31.5317 6.23047 29.3583L9.82883 15.8086Z" fill="#9E77ED"/>
<path d="M4.4459 10.3766C5.02307 8.20326 7.2369 5.96925 9.39062 5.38681L22.8179 1.75563C24.9716 1.1732 26.2496 2.46289 25.6725 4.63625L22.0741 18.1859C21.4969 20.3593 19.2831 22.5933 17.1294 23.1757L3.70212 26.8069C1.5484 27.3894 0.270361 26.0997 0.847536 23.9263L4.4459 10.3766Z" fill="#6941C6"/>
<path d="M43.5317 22.2587H48.1504V24.0834H41.2911V10.2992H43.5317V22.2587Z" fill="#101828"/>
<path d="M49.2773 18.5697C49.2773 17.4722 49.5001 16.5004 49.9455 15.6542C50.4041 14.808 51.02 14.1535 51.793 13.6907C52.5792 13.2147 53.444 12.9767 54.3874 12.9767C55.2391 12.9767 55.9794 13.1486 56.6083 13.4924C57.2503 13.8229 57.7613 14.2394 58.1413 14.7419V13.1552H60.4015V24.0834H58.1413V22.457C57.7613 22.9727 57.2438 23.4024 56.5886 23.7462C55.9335 24.09 55.1866 24.2619 54.3481 24.2619C53.4178 24.2619 52.5661 24.0239 51.793 23.5479C51.02 23.0586 50.4041 22.3843 49.9455 21.5249C49.5001 20.6522 49.2773 19.6671 49.2773 18.5697ZM58.1413 18.6094C58.1413 17.8557 57.9841 17.2012 57.6696 16.6459C57.3682 16.0905 56.9686 15.6674 56.4707 15.3765C55.9728 15.0856 55.4356 14.9402 54.8591 14.9402C54.2826 14.9402 53.7453 15.0856 53.2474 15.3765C52.7495 15.6542 52.3433 16.0707 52.0289 16.626C51.7275 17.1681 51.5768 17.816 51.5768 18.5697C51.5768 19.3234 51.7275 19.9845 52.0289 20.553C52.3433 21.1216 52.7495 21.5579 53.2474 21.862C53.7584 22.1529 54.2957 22.2984 54.8591 22.2984C55.4356 22.2984 55.9728 22.1529 56.4707 21.862C56.9686 21.5711 57.3682 21.148 57.6696 20.5927C57.9841 20.0241 58.1413 19.363 58.1413 18.6094Z" fill="#101828"/>
<path d="M73.0929 13.1552L66.4498 29.2202H64.1306L66.3319 23.9049L62.0669 13.1552H64.563L67.6094 21.4852L70.7737 13.1552H73.0929Z" fill="#101828"/>
<path d="M84.7091 18.3515C84.7091 18.7614 84.6829 19.1316 84.6304 19.4622H76.3561C76.4216 20.3349 76.7426 21.0356 77.3191 21.5645C77.8956 22.0934 78.6032 22.3579 79.4418 22.3579C80.6472 22.3579 81.4989 21.8488 81.9968 20.8307H84.4143C84.0867 21.8356 83.4905 22.662 82.6257 23.3099C81.774 23.9445 80.7127 24.2619 79.4418 24.2619C78.4066 24.2619 77.4763 24.0305 76.6509 23.5677C75.8385 23.0917 75.1965 22.4306 74.7248 21.5844C74.2662 20.7249 74.0369 19.7332 74.0369 18.6094C74.0369 17.4855 74.2596 16.5004 74.7051 15.6542C75.1637 14.7948 75.7992 14.1336 76.6116 13.6709C77.437 13.2081 78.3804 12.9767 79.4418 12.9767C80.4638 12.9767 81.3744 13.2015 82.1737 13.651C82.9729 14.1006 83.5953 14.7353 84.0408 15.555C84.4863 16.3616 84.7091 17.2938 84.7091 18.3515ZM82.3702 17.6375C82.3571 16.8045 82.0623 16.1368 81.4858 15.6344C80.9093 15.1319 80.1952 14.8807 79.3435 14.8807C78.5704 14.8807 77.9087 15.1319 77.3584 15.6344C76.8081 16.1236 76.4805 16.7913 76.3757 17.6375H82.3702Z" fill="#101828"/>
<path d="M89.1546 14.7419C89.4821 14.1865 89.9145 13.7568 90.4517 13.4527C91.0021 13.1354 91.6507 12.9767 92.3975 12.9767V15.317H91.8275C90.9496 15.317 90.2814 15.5418 89.8228 15.9914C89.3773 16.4409 89.1546 17.221 89.1546 18.3317V24.0834H86.914V13.1552H89.1546V14.7419Z" fill="#101828"/>
<path d="M98.3879 24.2619C97.5362 24.2619 96.7697 24.1098 96.0883 23.8057C95.4201 23.4884 94.8894 23.0653 94.4963 22.5364C94.1033 21.9943 93.8936 21.3926 93.8674 20.7315H96.1866C96.2259 21.1943 96.4421 21.5844 96.8352 21.9017C97.2414 22.2058 97.7458 22.3579 98.3486 22.3579C98.9775 22.3579 99.4623 22.2389 99.803 22.0009C100.157 21.7496 100.334 21.4323 100.334 21.0489C100.334 20.639 100.137 20.3349 99.744 20.1365C99.364 19.9382 98.7547 19.72 97.9162 19.482C97.1038 19.2572 96.4421 19.0391 95.9311 18.8275C95.4201 18.616 94.9746 18.292 94.5946 17.8557C94.2277 17.4194 94.0443 16.8442 94.0443 16.1302C94.0443 15.5484 94.2146 15.0195 94.5553 14.5435C94.896 14.0543 95.3808 13.6709 96.0097 13.3932C96.6518 13.1155 97.3855 12.9767 98.211 12.9767C99.4426 12.9767 100.432 13.294 101.179 13.9287C101.939 14.5501 102.345 15.403 102.397 16.4872H100.157C100.117 15.998 99.9209 15.6079 99.5671 15.317C99.2133 15.0261 98.7351 14.8807 98.1324 14.8807C97.5427 14.8807 97.0907 14.9931 96.7762 15.2179C96.4618 15.4426 96.3045 15.7401 96.3045 16.1104C96.3045 16.4012 96.4094 16.6459 96.619 16.8442C96.8286 17.0425 97.0841 17.2012 97.3855 17.3202C97.6869 17.426 98.1324 17.5648 98.722 17.7367C99.5081 17.9482 100.15 18.1664 100.648 18.3912C101.159 18.6028 101.598 18.9201 101.965 19.3432C102.332 19.7663 102.522 20.3282 102.535 21.029C102.535 21.6505 102.365 22.2058 102.024 22.695C101.683 23.1843 101.198 23.5677 100.569 23.8454C99.9536 24.123 99.2264 24.2619 98.3879 24.2619Z" fill="#101828"/>
</svg>
